<svg xmlns="http://www.w3.org/2000/svg" viewBox="0 0 400 400" width="400" height="400"><circle cx="200" cy="200" r="188" fill="#D9932F"/><circle cx="200" cy="200" r="166" fill="#C34B2B"/><circle cx="200" cy="200" r="152" fill="#F5C95B"/><ellipse cx="242" cy="324" rx="19" ry="17" fill="#C34B2B" opacity=".55" transform="rotate(110 242 324)"/><ellipse cx="198" cy="81" rx="22" ry="15" fill="#C34B2B" opacity=".55" transform="rotate(102 198 81)"/><ellipse cx="246" cy="307" rx="29" ry="14" fill="#C34B2B" opacity=".55" transform="rotate(127 246 307)"/><ellipse cx="156" cy="190" rx="21" ry="20" fill="#C34B2B" opacity=".55" transform="rotate(108 156 190)"/><ellipse cx="278" cy="282" rx="28" ry="19" fill="#C34B2B" opacity=".55" transform="rotate(47 278 282)"/><ellipse cx="235" cy="297" rx="18" ry="16" fill="#C34B2B" opacity=".55" transform="rotate(140 235 297)"/><ellipse cx="196" cy="214" rx="33" ry="24" fill="#FBE3A6" transform="rotate(161 196 214)"/><ellipse cx="199" cy="208" rx="30" ry="21" fill="#FBE3A6" transform="rotate(154 199 208)"/><ellipse cx="239" cy="258" rx="25" ry="15" fill="#FBE3A6" transform="rotate(11 239 258)"/><ellipse cx="196" cy="213" rx="29" ry="19" fill="#FBE3A6" transform="rotate(175 196 213)"/><ellipse cx="119" cy="179" rx="23" ry="22" fill="#FBE3A6" transform="rotate(138 119 179)"/><g transform="translate(219 263) rotate(-17) scale(1.05)"><rect x="-24" y="-8" width="48" height="16" rx="8" fill="#A83C2A"/><rect x="-16" y="-4" width="9" height="8" rx="4" fill="#8E2F20"/><rect x="4" y="-4" width="9" height="8" rx="4" fill="#8E2F20"/></g><g transform="translate(301 149) rotate(-3) scale(1.05)"><rect x="-24" y="-8" width="48" height="16" rx="8" fill="#A83C2A"/><rect x="-16" y="-4" width="9" height="8" rx="4" fill="#8E2F20"/><rect x="4" y="-4" width="9" height="8" rx="4" fill="#8E2F20"/></g><g transform="translate(126 101) rotate(25) scale(1.05)"><rect x="-24" y="-8" width="48" height="16" rx="8" fill="#A83C2A"/><rect x="-16" y="-4" width="9" height="8" rx="4" fill="#8E2F20"/><rect x="4" y="-4" width="9" height="8" rx="4" fill="#8E2F20"/></g><g transform="translate(202 89) rotate(-2) scale(1.05)"><circle cx="-9" cy="-6" r="7" fill="#7A4B2A"/><circle cx="6" cy="-8" r="6" fill="#7A4B2A"/><circle cx="0" cy="6" r="7" fill="#7A4B2A"/><circle cx="11" cy="4" r="5" fill="#7A4B2A"/></g><g transform="translate(168 155) rotate(8) scale(1.05)"><circle cx="-9" cy="-6" r="7" fill="#7A4B2A"/><circle cx="6" cy="-8" r="6" fill="#7A4B2A"/><circle cx="0" cy="6" r="7" fill="#7A4B2A"/><circle cx="11" cy="4" r="5" fill="#7A4B2A"/></g><g transform="translate(139 214) rotate(-30) scale(1.05)"><circle cx="-9" cy="-6" r="7" fill="#7A4B2A"/><circle cx="6" cy="-8" r="6" fill="#7A4B2A"/><circle cx="0" cy="6" r="7" fill="#7A4B2A"/><circle cx="11" cy="4" r="5" fill="#7A4B2A"/></g><g transform="translate(267 106) rotate(37) scale(1.05)"><circle cx="-9" cy="-6" r="7" fill="#7A4B2A"/><circle cx="6" cy="-8" r="6" fill="#7A4B2A"/><circle cx="0" cy="6" r="7" fill="#7A4B2A"/><circle cx="11" cy="4" r="5" fill="#7A4B2A"/></g><g transform="translate(171 288) rotate(34) scale(1.05)"><path d="M-20-5c12-9 28-9 40 0-12 9-28 9-40 0Z" fill="#3F8F4B"/></g><g transform="translate(268 262) rotate(-20) scale(1.05)"><path d="M-20-5c12-9 28-9 40 0-12 9-28 9-40 0Z" fill="#3F8F4B"/></g><g transform="translate(129 261) rotate(-14) scale(1.05)"><path d="M-20-5c12-9 28-9 40 0-12 9-28 9-40 0Z" fill="#3F8F4B"/></g><g transform="translate(315 201) rotate(9) scale(1.05)"><path d="M-20-5c12-9 28-9 40 0-12 9-28 9-40 0Z" fill="#3F8F4B"/></g><g transform="translate(87 226) rotate(-34) scale(1.05)"><circle r="11" fill="#2E2A33"/><circle r="4.5" fill="#8C7A5A"/></g><g transform="translate(89 147) rotate(-9) scale(1.05)"><circle r="11" fill="#2E2A33"/><circle r="4.5" fill="#8C7A5A"/></g><g transform="translate(232 150) rotate(7) scale(1.05)"><circle r="11" fill="#2E2A33"/><circle r="4.5" fill="#8C7A5A"/></g><g transform="translate(229 197) rotate(-0) scale(1.05)"><circle r="11" fill="#2E2A33"/><circle r="4.5" fill="#8C7A5A"/></g><g transform="translate(184 226) rotate(-11) scale(1.05)"><circle r="11" fill="#2E2A33"/><circle r="4.5" fill="#8C7A5A"/></g></svg>