<svg xmlns="http://www.w3.org/2000/svg" viewBox="0 0 400 400" width="400" height="400"><circle cx="200" cy="200" r="188" fill="#DCA044"/><circle cx="200" cy="200" r="166" fill="#F0E4C8"/><circle cx="200" cy="200" r="152" fill="#F8E2B0"/><ellipse cx="278" cy="164" rx="21" ry="13" fill="#F0E4C8" opacity=".55" transform="rotate(25 278 164)"/><ellipse cx="123" cy="264" rx="24" ry="20" fill="#F0E4C8" opacity=".55" transform="rotate(72 123 264)"/><ellipse cx="127" cy="241" rx="19" ry="19" fill="#F0E4C8" opacity=".55" transform="rotate(151 127 241)"/><ellipse cx="80" cy="218" rx="22" ry="15" fill="#F0E4C8" opacity=".55" transform="rotate(174 80 218)"/><ellipse cx="142" cy="163" rx="26" ry="12" fill="#F0E4C8" opacity=".55" transform="rotate(83 142 163)"/><ellipse cx="208" cy="240" rx="24" ry="11" fill="#F0E4C8" opacity=".55" transform="rotate(56 208 240)"/><ellipse cx="147" cy="154" rx="36" ry="22" fill="#FDF1D8" transform="rotate(132 147 154)"/><ellipse cx="216" cy="232" rx="27" ry="17" fill="#FDF1D8" transform="rotate(103 216 232)"/><ellipse cx="194" cy="196" rx="31" ry="22" fill="#FDF1D8" transform="rotate(6 194 196)"/><ellipse cx="210" cy="312" rx="23" ry="18" fill="#FDF1D8" transform="rotate(24 210 312)"/><ellipse cx="190" cy="208" rx="35" ry="19" fill="#FDF1D8" transform="rotate(122 190 208)"/><g transform="translate(176 301) rotate(-27) scale(1.05)"><circle cx="-9" cy="-6" r="7" fill="#7A4B2A"/><circle cx="6" cy="-8" r="6" fill="#7A4B2A"/><circle cx="0" cy="6" r="7" fill="#7A4B2A"/><circle cx="11" cy="4" r="5" fill="#7A4B2A"/></g><g transform="translate(159 87) rotate(-17) scale(1.05)"><circle cx="-9" cy="-6" r="7" fill="#7A4B2A"/><circle cx="6" cy="-8" r="6" fill="#7A4B2A"/><circle cx="0" cy="6" r="7" fill="#7A4B2A"/><circle cx="11" cy="4" r="5" fill="#7A4B2A"/></g><g transform="translate(152 146) rotate(14) scale(1.05)"><circle cx="-9" cy="-6" r="7" fill="#7A4B2A"/><circle cx="6" cy="-8" r="6" fill="#7A4B2A"/><circle cx="0" cy="6" r="7" fill="#7A4B2A"/><circle cx="11" cy="4" r="5" fill="#7A4B2A"/></g><g transform="translate(224 240) rotate(-40) scale(1.05)"><circle cx="-9" cy="-6" r="7" fill="#7A4B2A"/><circle cx="6" cy="-8" r="6" fill="#7A4B2A"/><circle cx="0" cy="6" r="7" fill="#7A4B2A"/><circle cx="11" cy="4" r="5" fill="#7A4B2A"/></g><g transform="translate(207 112) rotate(-37) scale(1.05)"><ellipse rx="15" ry="8" fill="#6E9B3C"/><ellipse rx="9" ry="4" fill="#89B554"/></g><g transform="translate(80 165) rotate(9) scale(1.05)"><ellipse rx="15" ry="8" fill="#6E9B3C"/><ellipse rx="9" ry="4" fill="#89B554"/></g><g transform="translate(98 214) rotate(-18) scale(1.05)"><ellipse rx="15" ry="8" fill="#6E9B3C"/><ellipse rx="9" ry="4" fill="#89B554"/></g><g transform="translate(249 163) rotate(12) scale(1.05)"><path d="M-16 6a16 16 0 0 1 32 0" fill="none" stroke="#C79BD1" stroke-width="5"/><path d="M-10 6a10 10 0 0 1 20 0" fill="none" stroke="#DCC0E2" stroke-width="4"/></g><g transform="translate(279 127) rotate(-16) scale(1.05)"><path d="M-16 6a16 16 0 0 1 32 0" fill="none" stroke="#C79BD1" stroke-width="5"/><path d="M-10 6a10 10 0 0 1 20 0" fill="none" stroke="#DCC0E2" stroke-width="4"/></g><g transform="translate(256 311) rotate(40) scale(1.05)"><path d="M-16 6a16 16 0 0 1 32 0" fill="none" stroke="#C79BD1" stroke-width="5"/><path d="M-10 6a10 10 0 0 1 20 0" fill="none" stroke="#DCC0E2" stroke-width="4"/></g><g transform="translate(142 200) rotate(-27) scale(1.05)"><path d="M-16 6a16 16 0 0 1 32 0" fill="none" stroke="#F2EAD8" stroke-width="5"/></g><g transform="translate(279 249) rotate(-16) scale(1.05)"><path d="M-16 6a16 16 0 0 1 32 0" fill="none" stroke="#F2EAD8" stroke-width="5"/></g><g transform="translate(114 278) rotate(20) scale(1.05)"><path d="M-16 6a16 16 0 0 1 32 0" fill="none" stroke="#F2EAD8" stroke-width="5"/></g><g transform="translate(310 196) rotate(-40) scale(1.05)"><rect x="-15" y="-11" width="30" height="22" rx="3" fill="#EE9A2B"/></g><g transform="translate(161 243) rotate(12) scale(1.05)"><rect x="-15" y="-11" width="30" height="22" rx="3" fill="#EE9A2B"/></g><g transform="translate(115 115) rotate(5) scale(1.05)"><rect x="-15" y="-11" width="30" height="22" rx="3" fill="#EE9A2B"/></g><g transform="translate(202 178) rotate(-15) scale(1.05)"><rect x="-15" y="-11" width="30" height="22" rx="3" fill="#EE9A2B"/></g></svg>