<svg xmlns="http://www.w3.org/2000/svg" viewBox="0 0 400 400" width="400" height="400"><circle cx="200" cy="200" r="188" fill="#D9932F"/><circle cx="200" cy="200" r="166" fill="#C34B2B"/><circle cx="200" cy="200" r="152" fill="#F5C95B"/><ellipse cx="201" cy="159" rx="28" ry="18" fill="#C34B2B" opacity=".55" transform="rotate(118 201 159)"/><ellipse cx="165" cy="309" rx="17" ry="19" fill="#C34B2B" opacity=".55" transform="rotate(152 165 309)"/><ellipse cx="93" cy="247" rx="29" ry="11" fill="#C34B2B" opacity=".55" transform="rotate(132 93 247)"/><ellipse cx="193" cy="121" rx="18" ry="19" fill="#C34B2B" opacity=".55" transform="rotate(90 193 121)"/><ellipse cx="197" cy="243" rx="28" ry="19" fill="#C34B2B" opacity=".55" transform="rotate(123 197 243)"/><ellipse cx="107" cy="158" rx="22" ry="16" fill="#C34B2B" opacity=".55" transform="rotate(106 107 158)"/><ellipse cx="202" cy="208" rx="33" ry="21" fill="#FBE3A6" transform="rotate(77 202 208)"/><ellipse cx="206" cy="216" rx="30" ry="22" fill="#FBE3A6" transform="rotate(176 206 216)"/><ellipse cx="198" cy="216" rx="26" ry="17" fill="#FBE3A6" transform="rotate(115 198 216)"/><ellipse cx="129" cy="194" rx="28" ry="20" fill="#FBE3A6" transform="rotate(28 129 194)"/><ellipse cx="175" cy="202" rx="31" ry="20" fill="#FBE3A6" transform="rotate(68 175 202)"/><g transform="translate(216 121) rotate(38) scale(1.05)"><circle cx="-9" cy="-6" r="7" fill="#7A4B2A"/><circle cx="6" cy="-8" r="6" fill="#7A4B2A"/><circle cx="0" cy="6" r="7" fill="#7A4B2A"/><circle cx="11" cy="4" r="5" fill="#7A4B2A"/></g><g transform="translate(133 267) rotate(12) scale(1.05)"><circle cx="-9" cy="-6" r="7" fill="#7A4B2A"/><circle cx="6" cy="-8" r="6" fill="#7A4B2A"/><circle cx="0" cy="6" r="7" fill="#7A4B2A"/><circle cx="11" cy="4" r="5" fill="#7A4B2A"/></g><g transform="translate(250 217) rotate(-31) scale(1.05)"><circle cx="-9" cy="-6" r="7" fill="#7A4B2A"/><circle cx="6" cy="-8" r="6" fill="#7A4B2A"/><circle cx="0" cy="6" r="7" fill="#7A4B2A"/><circle cx="11" cy="4" r="5" fill="#7A4B2A"/></g><g transform="translate(198 258) rotate(-25) scale(1.05)"><circle cx="-9" cy="-6" r="7" fill="#7A4B2A"/><circle cx="6" cy="-8" r="6" fill="#7A4B2A"/><circle cx="0" cy="6" r="7" fill="#7A4B2A"/><circle cx="11" cy="4" r="5" fill="#7A4B2A"/></g><g transform="translate(85 157) rotate(35) scale(1.05)"><rect x="-15" y="-11" width="30" height="22" rx="9" fill="#E8C68A"/></g><g transform="translate(237 296) rotate(7) scale(1.05)"><rect x="-15" y="-11" width="30" height="22" rx="9" fill="#E8C68A"/></g><g transform="translate(298 170) rotate(39) scale(1.05)"><rect x="-15" y="-11" width="30" height="22" rx="9" fill="#E8C68A"/></g><g transform="translate(114 202) rotate(-22) scale(1.05)"><rect x="-15" y="-11" width="30" height="22" rx="9" fill="#E8C68A"/></g></svg>