<svg xmlns="http://www.w3.org/2000/svg" viewBox="0 0 400 400" width="400" height="400"><circle cx="200" cy="200" r="188" fill="#DCA044"/><circle cx="200" cy="200" r="166" fill="#F0E4C8"/><circle cx="200" cy="200" r="152" fill="#F8E2B0"/><ellipse cx="245" cy="234" rx="27" ry="12" fill="#F0E4C8" opacity=".55" transform="rotate(162 245 234)"/><ellipse cx="170" cy="279" rx="30" ry="19" fill="#F0E4C8" opacity=".55" transform="rotate(95 170 279)"/><ellipse cx="259" cy="172" rx="19" ry="17" fill="#F0E4C8" opacity=".55" transform="rotate(87 259 172)"/><ellipse cx="281" cy="284" rx="27" ry="16" fill="#F0E4C8" opacity=".55" transform="rotate(177 281 284)"/><ellipse cx="93" cy="167" rx="17" ry="17" fill="#F0E4C8" opacity=".55" transform="rotate(83 93 167)"/><ellipse cx="150" cy="92" rx="17" ry="18" fill="#F0E4C8" opacity=".55" transform="rotate(99 150 92)"/><ellipse cx="148" cy="295" rx="25" ry="22" fill="#FDF1D8" transform="rotate(68 148 295)"/><ellipse cx="237" cy="201" rx="28" ry="22" fill="#FDF1D8" transform="rotate(28 237 201)"/><ellipse cx="301" cy="229" rx="33" ry="15" fill="#FDF1D8" transform="rotate(154 301 229)"/><ellipse cx="193" cy="163" rx="34" ry="23" fill="#FDF1D8" transform="rotate(159 193 163)"/><ellipse cx="267" cy="225" rx="29" ry="15" fill="#FDF1D8" transform="rotate(173 267 225)"/><g transform="translate(108 194) rotate(-15) scale(1.05)"><rect x="-15" y="-11" width="30" height="22" rx="9" fill="#E8C68A"/></g><g transform="translate(280 250) rotate(-2) scale(1.05)"><rect x="-15" y="-11" width="30" height="22" rx="9" fill="#E8C68A"/></g><g transform="translate(125 149) rotate(10) scale(1.05)"><rect x="-15" y="-11" width="30" height="22" rx="9" fill="#E8C68A"/></g><g transform="translate(172 308) rotate(-7) scale(1.05)"><rect x="-15" y="-11" width="30" height="22" rx="9" fill="#E8C68A"/></g><g transform="translate(215 214) rotate(14) scale(1.05)"><circle r="15" fill="#F1DFA6"/><circle r="15" fill="none" stroke="#D9BE79" stroke-width="3"/></g><g transform="translate(175 130) rotate(-22) scale(1.05)"><circle r="15" fill="#F1DFA6"/><circle r="15" fill="none" stroke="#D9BE79" stroke-width="3"/></g><g transform="translate(293 187) rotate(33) scale(1.05)"><circle r="15" fill="#F1DFA6"/><circle r="15" fill="none" stroke="#D9BE79" stroke-width="3"/></g><g transform="translate(140 266) rotate(-19) scale(1.05)"><circle r="15" fill="#F1DFA6"/><circle r="15" fill="none" stroke="#D9BE79" stroke-width="3"/></g></svg>