<svg xmlns="http://www.w3.org/2000/svg" viewBox="0 0 400 400" width="400" height="400"><circle cx="200" cy="200" r="188" fill="#DCA044"/><circle cx="200" cy="200" r="166" fill="#F0E4C8"/><circle cx="200" cy="200" r="152" fill="#F8E2B0"/><ellipse cx="254" cy="110" rx="29" ry="16" fill="#F0E4C8" opacity=".55" transform="rotate(37 254 110)"/><ellipse cx="119" cy="132" rx="18" ry="17" fill="#F0E4C8" opacity=".55" transform="rotate(20 119 132)"/><ellipse cx="243" cy="151" rx="25" ry="13" fill="#F0E4C8" opacity=".55" transform="rotate(126 243 151)"/><ellipse cx="306" cy="236" rx="16" ry="14" fill="#F0E4C8" opacity=".55" transform="rotate(47 306 236)"/><ellipse cx="221" cy="164" rx="27" ry="11" fill="#F0E4C8" opacity=".55" transform="rotate(56 221 164)"/><ellipse cx="250" cy="103" rx="28" ry="16" fill="#F0E4C8" opacity=".55" transform="rotate(177 250 103)"/><ellipse cx="159" cy="115" rx="26" ry="18" fill="#FDF1D8" transform="rotate(169 159 115)"/><ellipse cx="132" cy="170" rx="35" ry="22" fill="#FDF1D8" transform="rotate(96 132 170)"/><ellipse cx="264" cy="158" rx="28" ry="15" fill="#FDF1D8" transform="rotate(65 264 158)"/><ellipse cx="266" cy="175" rx="33" ry="17" fill="#FDF1D8" transform="rotate(51 266 175)"/><ellipse cx="187" cy="206" rx="23" ry="16" fill="#FDF1D8" transform="rotate(118 187 206)"/><g transform="translate(173 123) rotate(-3) scale(1.05)"><rect x="-16" y="-13" width="32" height="26" rx="5" fill="#F0A9A4"/><rect x="-9" y="-6" width="18" height="12" rx="3" fill="#E4938F"/></g><g transform="translate(283 228) rotate(39) scale(1.05)"><rect x="-16" y="-13" width="32" height="26" rx="5" fill="#F0A9A4"/><rect x="-9" y="-6" width="18" height="12" rx="3" fill="#E4938F"/></g><g transform="translate(118 105) rotate(-7) scale(1.05)"><rect x="-16" y="-13" width="32" height="26" rx="5" fill="#F0A9A4"/><rect x="-9" y="-6" width="18" height="12" rx="3" fill="#E4938F"/></g><g transform="translate(321 197) rotate(-11) scale(1.05)"><rect x="-16" y="-13" width="32" height="26" rx="5" fill="#F0A9A4"/><rect x="-9" y="-6" width="18" height="12" rx="3" fill="#E4938F"/></g><g transform="translate(220 205) rotate(-40) scale(1.05)"><circle r="15" fill="#F1DFA6"/><circle r="15" fill="none" stroke="#D9BE79" stroke-width="3"/></g><g transform="translate(171 206) rotate(-6) scale(1.05)"><circle r="15" fill="#F1DFA6"/><circle r="15" fill="none" stroke="#D9BE79" stroke-width="3"/></g><g transform="translate(104 174) rotate(-20) scale(1.05)"><circle r="15" fill="#F1DFA6"/><circle r="15" fill="none" stroke="#D9BE79" stroke-width="3"/></g><g transform="translate(95 229) rotate(23) scale(1.05)"><circle r="15" fill="#F1DFA6"/><circle r="15" fill="none" stroke="#D9BE79" stroke-width="3"/></g><g transform="translate(241 137) rotate(35) scale(1.05)"><path d="M-16 6a16 16 0 0 1 32 0" fill="none" stroke="#C79BD1" stroke-width="5"/><path d="M-10 6a10 10 0 0 1 20 0" fill="none" stroke="#DCC0E2" stroke-width="4"/></g><g transform="translate(172 258) rotate(-29) scale(1.05)"><path d="M-16 6a16 16 0 0 1 32 0" fill="none" stroke="#C79BD1" stroke-width="5"/><path d="M-10 6a10 10 0 0 1 20 0" fill="none" stroke="#DCC0E2" stroke-width="4"/></g><g transform="translate(282 109) rotate(-11) scale(1.05)"><path d="M-16 6a16 16 0 0 1 32 0" fill="none" stroke="#C79BD1" stroke-width="5"/><path d="M-10 6a10 10 0 0 1 20 0" fill="none" stroke="#DCC0E2" stroke-width="4"/></g><g transform="translate(294 159) rotate(31) scale(1.05)"><path d="M-16 6a16 16 0 0 1 32 0" fill="none" stroke="#F2EAD8" stroke-width="5"/></g><g transform="translate(208 314) rotate(38) scale(1.05)"><path d="M-16 6a16 16 0 0 1 32 0" fill="none" stroke="#F2EAD8" stroke-width="5"/></g><g transform="translate(148 313) rotate(-32) scale(1.05)"><path d="M-16 6a16 16 0 0 1 32 0" fill="none" stroke="#F2EAD8" stroke-width="5"/></g></svg>