<svg xmlns="http://www.w3.org/2000/svg" viewBox="0 0 400 400" width="400" height="400"><circle cx="200" cy="200" r="188" fill="#D9932F"/><circle cx="200" cy="200" r="166" fill="#C34B2B"/><circle cx="200" cy="200" r="152" fill="#F5C95B"/><ellipse cx="148" cy="236" rx="19" ry="18" fill="#C34B2B" opacity=".55" transform="rotate(100 148 236)"/><ellipse cx="107" cy="224" rx="26" ry="19" fill="#C34B2B" opacity=".55" transform="rotate(66 107 224)"/><ellipse cx="210" cy="276" rx="26" ry="17" fill="#C34B2B" opacity=".55" transform="rotate(141 210 276)"/><ellipse cx="167" cy="153" rx="21" ry="19" fill="#C34B2B" opacity=".55" transform="rotate(104 167 153)"/><ellipse cx="234" cy="231" rx="22" ry="11" fill="#C34B2B" opacity=".55" transform="rotate(146 234 231)"/><ellipse cx="302" cy="268" rx="26" ry="11" fill="#C34B2B" opacity=".55" transform="rotate(35 302 268)"/><ellipse cx="251" cy="302" rx="31" ry="19" fill="#FBE3A6" transform="rotate(128 251 302)"/><ellipse cx="177" cy="189" rx="32" ry="18" fill="#FBE3A6" transform="rotate(44 177 189)"/><ellipse cx="232" cy="180" rx="34" ry="16" fill="#FBE3A6" transform="rotate(94 232 180)"/><ellipse cx="164" cy="158" rx="23" ry="21" fill="#FBE3A6" transform="rotate(99 164 158)"/><ellipse cx="180" cy="311" rx="23" ry="18" fill="#FBE3A6" transform="rotate(57 180 311)"/><g transform="translate(141 141) rotate(15) scale(1.05)"><ellipse rx="27" ry="23" fill="#FFFBF0"/><circle r="12" fill="#F2B333"/></g><g transform="translate(218 118) rotate(16) scale(1.05)"><circle r="13" fill="#D9C6A8"/><path d="M-8-3h16" stroke="#BFA684" stroke-width="3"/></g><g transform="translate(127 210) rotate(2) scale(1.05)"><circle r="13" fill="#D9C6A8"/><path d="M-8-3h16" stroke="#BFA684" stroke-width="3"/></g><g transform="translate(263 133) rotate(6) scale(1.05)"><circle r="13" fill="#D9C6A8"/><path d="M-8-3h16" stroke="#BFA684" stroke-width="3"/></g><g transform="translate(218 282) rotate(37) scale(1.05)"><circle r="13" fill="#D9C6A8"/><path d="M-8-3h16" stroke="#BFA684" stroke-width="3"/></g><g transform="translate(267 223) rotate(12) scale(1.05)"><circle r="11" fill="#2E2A33"/><circle r="4.5" fill="#8C7A5A"/></g><g transform="translate(87 150) rotate(-27) scale(1.05)"><circle r="11" fill="#2E2A33"/><circle r="4.5" fill="#8C7A5A"/></g><g transform="translate(254 87) rotate(-10) scale(1.05)"><circle r="11" fill="#2E2A33"/><circle r="4.5" fill="#8C7A5A"/></g><g transform="translate(187 233) rotate(20) scale(1.05)"><circle r="11" fill="#2E2A33"/><circle r="4.5" fill="#8C7A5A"/></g><g transform="translate(128 298) rotate(-24) scale(1.05)"><circle r="11" fill="#2E2A33"/><circle r="4.5" fill="#8C7A5A"/></g></svg>