<svg xmlns="http://www.w3.org/2000/svg" viewBox="0 0 400 400" width="400" height="400"><circle cx="200" cy="200" r="188" fill="#D9932F"/><circle cx="200" cy="200" r="166" fill="#C34B2B"/><circle cx="200" cy="200" r="152" fill="#F5C95B"/><ellipse cx="139" cy="118" rx="18" ry="19" fill="#C34B2B" opacity=".55" transform="rotate(171 139 118)"/><ellipse cx="279" cy="151" rx="25" ry="11" fill="#C34B2B" opacity=".55" transform="rotate(84 279 151)"/><ellipse cx="294" cy="241" rx="30" ry="14" fill="#C34B2B" opacity=".55" transform="rotate(89 294 241)"/><ellipse cx="172" cy="233" rx="18" ry="11" fill="#C34B2B" opacity=".55" transform="rotate(95 172 233)"/><ellipse cx="268" cy="297" rx="17" ry="13" fill="#C34B2B" opacity=".55" transform="rotate(98 268 297)"/><ellipse cx="137" cy="164" rx="18" ry="17" fill="#C34B2B" opacity=".55" transform="rotate(66 137 164)"/><ellipse cx="140" cy="233" rx="36" ry="24" fill="#FBE3A6" transform="rotate(164 140 233)"/><ellipse cx="203" cy="170" rx="36" ry="18" fill="#FBE3A6" transform="rotate(151 203 170)"/><ellipse cx="247" cy="284" rx="26" ry="18" fill="#FBE3A6" transform="rotate(143 247 284)"/><ellipse cx="197" cy="195" rx="23" ry="23" fill="#FBE3A6" transform="rotate(70 197 195)"/><ellipse cx="193" cy="250" rx="25" ry="17" fill="#FBE3A6" transform="rotate(62 193 250)"/><g transform="translate(122 287) rotate(-21) scale(1.05)"><circle r="21" fill="#B02F2A"/><circle cx="-6" cy="-5" r="3" fill="#A82C22"/><circle cx="7" cy="4" r="2.6" fill="#A82C22"/></g><g transform="translate(263 141) rotate(32) scale(1.05)"><circle r="21" fill="#B02F2A"/><circle cx="-6" cy="-5" r="3" fill="#A82C22"/><circle cx="7" cy="4" r="2.6" fill="#A82C22"/></g><g transform="translate(92 201) rotate(-37) scale(1.05)"><circle r="21" fill="#B02F2A"/><circle cx="-6" cy="-5" r="3" fill="#A82C22"/><circle cx="7" cy="4" r="2.6" fill="#A82C22"/></g><g transform="translate(256 231) rotate(-37) scale(1.05)"><circle r="21" fill="#B02F2A"/><circle cx="-6" cy="-5" r="3" fill="#A82C22"/><circle cx="7" cy="4" r="2.6" fill="#A82C22"/></g><g transform="translate(184 231) rotate(31) scale(1.05)"><circle r="21" fill="#B02F2A"/><circle cx="-6" cy="-5" r="3" fill="#A82C22"/><circle cx="7" cy="4" r="2.6" fill="#A82C22"/></g><g transform="translate(225 301) rotate(26) scale(1.05)"><path d="M-18 2a18 14 0 0 1 36 0Z" fill="#E8DCC4"/><rect x="-6" y="2" width="12" height="13" rx="4" fill="#DCCDAE"/></g><g transform="translate(195 85) rotate(4) scale(1.05)"><path d="M-18 2a18 14 0 0 1 36 0Z" fill="#E8DCC4"/><rect x="-6" y="2" width="12" height="13" rx="4" fill="#DCCDAE"/></g><g transform="translate(302 165) rotate(2) scale(1.05)"><path d="M-18 2a18 14 0 0 1 36 0Z" fill="#E8DCC4"/><rect x="-6" y="2" width="12" height="13" rx="4" fill="#DCCDAE"/></g><g transform="translate(134 113) rotate(30) scale(1.05)"><path d="M-18 2a18 14 0 0 1 36 0Z" fill="#E8DCC4"/><rect x="-6" y="2" width="12" height="13" rx="4" fill="#DCCDAE"/></g><g transform="translate(96 151) rotate(-30) scale(1.05)"><circle r="11" fill="#2E2A33"/><circle r="4.5" fill="#8C7A5A"/></g><g transform="translate(313 230) rotate(28) scale(1.05)"><circle r="11" fill="#2E2A33"/><circle r="4.5" fill="#8C7A5A"/></g><g transform="translate(173 286) rotate(39) scale(1.05)"><circle r="11" fill="#2E2A33"/><circle r="4.5" fill="#8C7A5A"/></g><g transform="translate(215 162) rotate(-37) scale(1.05)"><circle r="11" fill="#2E2A33"/><circle r="4.5" fill="#8C7A5A"/></g><g transform="translate(90 249) rotate(-36) scale(1.05)"><circle r="11" fill="#2E2A33"/><circle r="4.5" fill="#8C7A5A"/></g></svg>